<svg width="241" height="46" viewBox="0 0 241 46" fill="none" xmlns="http://www.w3.org/2000/svg">
<path d="M21.2542 5.61774V2.90573C20.9863 2.84613 20.7481 2.69711 20.5695 2.5183C20.4951 2.44379 20.4207 2.35439 20.3612 2.25008L15.4941 3.8296L10.7759 5.36442L20.2421 6.52672C20.3165 6.333 20.4356 6.15419 20.5844 6.00518C20.763 5.81146 20.9863 5.67735 21.2542 5.61774ZM21.9537 2.90573V5.61774C22.2216 5.67735 22.4598 5.82636 22.6384 6.00518C22.7872 6.15419 22.8914 6.333 22.9807 6.52672L32.4469 5.36442L27.7287 3.8296L22.8617 2.25008C22.8021 2.33949 22.7277 2.42889 22.6533 2.5183C22.4598 2.69711 22.2216 2.83122 21.9537 2.90573ZM10.5378 6.04988C10.4634 6.24359 10.3443 6.42241 10.2104 6.55652C10.0913 6.67573 9.97221 6.76514 9.82337 6.83964L10.5824 10.1477C10.9843 10.1477 11.3415 10.3116 11.6094 10.5798C11.669 10.6394 11.7136 10.6841 11.7583 10.7438L15.9555 9.00031L20.1528 7.25687V7.21217L10.5378 6.04988ZM14.482 15.0353L17.8756 13.6346L21.2691 12.2339V8.47877C21.0012 8.41917 20.763 8.27015 20.5844 8.09134C20.5249 8.03174 20.4802 7.98703 20.4356 7.92743L16.2234 9.65596L12.0262 11.3994C12.0411 11.4739 12.0411 11.5484 12.0411 11.6229C12.0411 11.906 11.9666 12.1594 11.8327 12.3829L14.482 15.0353ZM2.5898 15.1694L9.13871 11.9358C9.10894 11.8464 9.10894 11.7272 9.10894 11.6229C9.10894 11.2206 9.27266 10.8481 9.54057 10.5798C9.64476 10.4755 9.77872 10.3712 9.91267 10.3116L9.13871 6.98865C8.94522 6.98865 8.76661 6.94395 8.60289 6.88435L5.59634 11.0269L2.5898 15.1694ZM6.87636 21.4875C6.93589 21.5322 6.99543 21.5769 7.04008 21.6365C7.23357 21.8302 7.36753 22.0537 7.42706 22.322H11.1778L12.5769 18.9245L13.976 15.527L11.3415 12.8746C11.1183 13.0236 10.8504 13.0981 10.5676 13.0981C10.4931 13.0981 10.4187 13.0981 10.3443 13.0832L8.61777 17.2854L6.87636 21.4875ZM5.99821 21.2044C6.07263 21.2044 6.14705 21.2044 6.22147 21.2193L7.96288 17.0171L9.7043 12.815C9.64476 12.7703 9.58523 12.7107 9.54057 12.666C9.49592 12.6362 9.48104 12.6064 9.45127 12.5766L2.90236 15.7953C2.93213 15.8996 2.93213 16.0039 2.93213 16.1082C2.93213 16.4807 2.79817 16.8234 2.56003 17.0917L5.46239 21.2938C5.641 21.2342 5.8196 21.2044 5.99821 21.2044ZM1.81583 27.7907C1.87537 27.8056 1.93491 27.8205 1.99444 27.8503L4.8968 23.6482C4.67354 23.3949 4.5247 23.0521 4.5247 22.6647C4.5247 22.2922 4.65866 21.9494 4.8968 21.6812L1.99444 17.4791C1.93491 17.494 1.87537 17.5238 1.81583 17.5387V22.6647V27.7907ZM9.45127 32.7677C9.48104 32.7379 9.51081 32.7081 9.54057 32.6783C9.60011 32.6187 9.64476 32.574 9.7043 32.5293L7.96288 28.3271L6.22147 24.125C6.14705 24.1399 6.07263 24.1399 5.99821 24.1399C5.8196 24.1399 5.641 24.1101 5.47727 24.0356L2.57491 28.2377C2.79817 28.4911 2.94701 28.8338 2.94701 29.2212C2.94701 29.3255 2.93213 29.4447 2.91724 29.5341L9.45127 32.7677ZM10.5676 32.2462C10.8504 32.2462 11.1034 32.3207 11.3266 32.4548L13.9909 29.8024L12.5918 26.4049L11.1927 23.0074H7.42706C7.36753 23.2756 7.21869 23.5141 7.04008 23.6929C6.98055 23.7525 6.93589 23.7972 6.87636 23.8419L8.61777 28.044L10.3592 32.2462C10.4187 32.2611 10.4931 32.2462 10.5676 32.2462ZM8.60289 38.4599C8.76661 38.3854 8.94522 38.3556 9.13871 38.3556L9.89779 35.0476C9.76383 34.9731 9.62988 34.8837 9.52569 34.7794C9.25778 34.5111 9.09406 34.1386 9.09406 33.7363C9.09406 33.632 9.10894 33.5128 9.12383 33.4233L2.5898 30.1898L5.59634 34.3323L8.60289 38.4599ZM20.4207 37.4318C20.4654 37.3722 20.51 37.3126 20.5695 37.2679C20.763 37.0741 20.9863 36.94 21.2542 36.8804V33.1253L17.8607 31.7246L14.4671 30.3239L11.8178 32.9763C11.9518 33.1998 12.0262 33.4531 12.0262 33.7363C12.0262 33.8108 12.0262 33.8853 12.0113 33.9598L16.2086 35.7032L20.4207 37.4318ZM20.1528 38.1172V38.0725L15.9555 36.3291L11.7583 34.5856C11.7136 34.6452 11.669 34.7048 11.6094 34.7496C11.3415 35.0178 10.9843 35.1817 10.5824 35.1817L9.82337 38.5047C9.95732 38.5792 10.0913 38.6686 10.1955 38.7729C10.3443 38.9219 10.4634 39.1007 10.5378 39.2944L20.1528 38.1172ZM20.3612 43.0942C20.4207 43.0048 20.4951 42.9154 20.5695 42.826C20.763 42.6323 20.9863 42.4982 21.2542 42.4386V39.7265C20.9863 39.6669 20.7481 39.5179 20.5695 39.3391C20.4207 39.1901 20.3016 39.0113 20.2272 38.8176L10.7611 39.9799L15.4792 41.5147L20.3612 43.0942ZM32.9827 39.8011C32.9678 39.7265 32.938 39.6669 32.938 39.5924L22.9956 38.7729C22.9212 38.9964 22.8021 39.1901 22.6384 39.3391C22.4449 39.5328 22.2216 39.6669 21.9537 39.7265V42.4386C22.2216 42.4982 22.4598 42.6472 22.6384 42.826C22.7128 42.9005 22.7872 42.9899 22.8468 43.0942L27.7138 41.5147L32.9827 39.8011ZM31.1966 33.9449C31.1818 33.8704 31.1818 33.7959 31.1818 33.7214C31.1818 33.4382 31.2562 33.1849 31.3901 32.9614L28.7408 30.309L25.3473 31.7097L21.9537 33.1104V36.8655C22.2216 36.9251 22.4598 37.0741 22.6384 37.253C22.6979 37.3126 22.7426 37.3573 22.7872 37.4169L26.9845 35.6734L31.1966 33.9449ZM32.7297 35.1966C32.6999 35.1966 32.6701 35.1966 32.6404 35.1966C32.2385 35.1966 31.8664 35.0327 31.5985 34.7645C31.539 34.7048 31.4943 34.6601 31.4497 34.6005L27.2524 36.344L23.07 38.0725L32.9976 38.8921C33.072 38.6686 33.1911 38.4748 33.3548 38.3258C33.4441 38.2364 33.5334 38.1619 33.6376 38.1023L32.7297 35.1966ZM40.6181 30.1749L34.0692 33.4084C34.099 33.5128 34.099 33.6171 34.099 33.7214C34.099 34.1237 33.9353 34.4962 33.6674 34.7645C33.5781 34.8539 33.4888 34.9284 33.3846 34.988L34.2776 37.8937C34.3074 37.8937 34.3371 37.8937 34.3669 37.8937C34.5604 37.8937 34.7539 37.9384 34.9176 37.998L37.5818 34.3174L40.6181 30.1749ZM37.7455 24.0505C37.5818 24.1101 37.4032 24.1548 37.2246 24.1548C37.1502 24.1548 37.0758 24.1548 37.0014 24.1399L35.2599 28.342L33.5185 32.5442C33.5781 32.5889 33.6376 32.6336 33.6822 32.6932C33.712 32.723 33.7418 32.7528 33.7715 32.7826L40.3056 29.549C40.2758 29.4447 40.2758 29.3404 40.2758 29.2361C40.2758 28.8636 40.4098 28.5209 40.6479 28.2526L37.7455 24.0505ZM41.3921 17.5536C41.3326 17.5387 41.273 17.5238 41.2135 17.494L38.3111 21.6961C38.5344 21.9494 38.6832 22.2922 38.6832 22.6796C38.6832 23.0521 38.5493 23.3949 38.3111 23.6631L41.2135 27.8652C41.273 27.8503 41.3326 27.8205 41.3921 27.8056V22.6796V17.5536ZM41.7493 14.6479C42.1512 14.6479 42.5233 14.8118 42.7912 15.08C43.0591 15.3482 43.2228 15.7207 43.2228 16.1231C43.2228 16.5254 43.0591 16.8979 42.7912 17.1662C42.5977 17.3599 42.3744 17.494 42.1065 17.5536V22.6796V27.8056C42.3744 27.8652 42.6126 28.0142 42.7912 28.193C43.0591 28.4613 43.2228 28.8338 43.2228 29.2361C43.2228 29.6384 43.0591 30.011 42.7912 30.2792C42.5233 30.5474 42.1512 30.7113 41.7493 30.7113C41.5558 30.7113 41.3623 30.6666 41.1986 30.607L38.1921 34.7496L35.5279 38.4301C35.7511 38.6835 35.8702 39.0262 35.8702 39.3838C35.8702 39.7862 35.7065 40.1587 35.4385 40.4269C35.1706 40.6951 34.7985 40.859 34.3967 40.859C33.9948 40.859 33.6376 40.6951 33.3697 40.4418L27.9371 42.2001L23.07 43.7797C23.07 43.8095 23.07 43.8542 23.07 43.884C23.07 44.2863 22.9063 44.6588 22.6384 44.9271C22.3705 45.1953 21.9984 45.3592 21.5965 45.3592C21.1947 45.3592 20.8226 45.1953 20.5547 44.9271C20.2867 44.6588 20.123 44.2863 20.123 43.884C20.123 43.8542 20.123 43.8095 20.123 43.7797L15.256 42.2001L10.4187 40.5908C10.3592 40.6802 10.2848 40.7696 10.2104 40.859C9.94244 41.1273 9.57034 41.2912 9.16848 41.2912C8.76661 41.2912 8.39452 41.1273 8.12661 40.859C7.85869 40.5908 7.69497 40.2183 7.69497 39.816C7.69497 39.4583 7.82893 39.1156 8.0373 38.8623L5.03076 34.7197L2.02421 30.5772C1.8456 30.6517 1.667 30.6815 1.47351 30.6815C1.07164 30.6815 0.699543 30.5176 0.431633 30.2494C0.163723 29.9961 0 29.6235 0 29.2212C0 28.8189 0.163723 28.4464 0.431633 28.1781C0.625123 27.9844 0.848382 27.8503 1.11629 27.7907V22.6647V17.5387C0.848382 17.4791 0.61024 17.3301 0.431633 17.1513C0.163723 16.8979 0 16.5254 0 16.1231C0 15.7207 0.163723 15.3482 0.431633 15.08C0.699543 14.8118 1.07164 14.6479 1.47351 14.6479C1.667 14.6479 1.86049 14.6926 2.02421 14.7522L5.03076 10.6096L8.0373 6.46711C7.81404 6.21379 7.69497 5.87107 7.69497 5.51344C7.69497 5.1111 7.85869 4.73858 8.12661 4.47035C8.39452 4.20213 8.76661 4.03822 9.16848 4.03822C9.57034 4.03822 9.94244 4.20213 10.2104 4.47035C10.2848 4.55976 10.3592 4.64917 10.4187 4.75348L15.2858 3.17395L20.1528 1.59443C20.1528 1.56462 20.1528 1.51992 20.1528 1.49012C20.1528 1.08779 20.3165 0.715257 20.5844 0.447035C20.8374 0.163913 21.2095 0 21.6114 0C22.0133 0 22.3854 0.163913 22.6533 0.432134C22.9212 0.700355 23.0849 1.07289 23.0849 1.47522C23.0849 1.50502 23.0849 1.54972 23.0849 1.57952L27.9519 3.15905L32.819 4.73858C32.8785 4.64917 32.9529 4.55976 33.0274 4.47035C33.2953 4.20213 33.6674 4.03822 34.0692 4.03822C34.4711 4.03822 34.8432 4.20213 35.1111 4.47035C35.379 4.73858 35.5427 5.1111 35.5427 5.51344C35.5427 5.87107 35.4088 6.21379 35.2004 6.46711L38.2069 10.6096L41.2135 14.7522C41.3623 14.6926 41.5558 14.6479 41.7493 14.6479ZM31.4645 10.7587C31.5092 10.699 31.5539 10.6394 31.6134 10.5947C31.8813 10.3265 32.2385 10.1626 32.6404 10.1626L33.3995 6.85454C33.2655 6.78004 33.1315 6.69063 33.0274 6.58632C32.8785 6.43731 32.7594 6.2585 32.685 6.06478L23.07 7.22707V7.27178L27.2673 9.01521L31.4645 10.7587ZM33.7715 12.5766C33.7418 12.6064 33.712 12.6362 33.6822 12.666C33.6227 12.7256 33.5781 12.7703 33.5185 12.815L35.2599 17.0171L37.0014 21.2193C37.0758 21.2044 37.1502 21.2044 37.2246 21.2044C37.4032 21.2044 37.5818 21.2342 37.7455 21.3087L40.6479 17.1066C40.4246 16.8532 40.2758 16.5105 40.2758 16.1231C40.2758 16.0188 40.2907 15.8996 40.3056 15.8102L33.7715 12.5766ZM33.3101 10.3116C33.4441 10.3861 33.5781 10.4755 33.6822 10.5798C33.9502 10.8481 34.1139 11.2206 34.1139 11.6229C34.1139 11.7272 34.099 11.8464 34.0841 11.9358L40.6181 15.1694L37.6116 11.0269L34.605 6.88435C34.4413 6.95885 34.2627 6.98865 34.0692 6.98865L33.3101 10.3116ZM30.9436 23.8568C30.8841 23.8121 30.8245 23.7674 30.7799 23.7078C30.512 23.4396 30.3483 23.067 30.3483 22.6647C30.3483 22.2624 30.512 21.8898 30.7799 21.6216C30.8394 21.562 30.8841 21.5173 30.9436 21.4726L29.991 19.1778L28.5473 15.7058L25.0794 14.2604L21.6114 12.815L18.1435 14.2604L14.6755 15.7058L13.2318 19.1778L11.788 22.6498L13.2318 26.1218L14.6755 29.5937L18.1435 31.0392L21.6114 32.4846L25.0794 31.0392L28.5473 29.5937L29.991 26.1218L30.9436 23.8568ZM33.2357 23.0223C33.1762 23.2905 33.0274 23.529 32.8487 23.7078C32.5808 23.976 32.2087 24.1399 31.8069 24.1399C31.7325 24.1399 31.658 24.1399 31.5836 24.125L30.631 26.4049L29.232 29.8024L31.8813 32.4548C32.1046 32.3207 32.3576 32.2462 32.6404 32.2462C32.7148 32.2462 32.7892 32.2462 32.8636 32.2611L34.605 28.0589L36.3465 23.8568C36.2869 23.8121 36.2274 23.7674 36.1827 23.7078C35.9893 23.5141 35.8553 23.2905 35.7958 23.0223H33.2357ZM31.8069 21.2044C32.2087 21.2044 32.5808 21.3683 32.8487 21.6365C33.0422 21.8302 33.1762 22.0537 33.2357 22.322H35.7958C35.8553 22.0537 36.0041 21.8153 36.1827 21.6365C36.2423 21.5769 36.2869 21.5322 36.3465 21.4875L34.605 17.2854L32.8636 13.0832C32.7892 13.0981 32.7148 13.0981 32.6404 13.0981C32.3576 13.0981 32.1046 13.0236 31.8813 12.8895L29.232 15.5419L30.631 18.9394L31.5836 21.2193C31.658 21.2044 31.7325 21.2044 31.8069 21.2044ZM21.9537 12.2339L25.3473 13.6346L28.7408 15.0353L31.3901 12.3829C31.2562 12.1594 31.1669 11.906 31.1669 11.6229C31.1669 11.5484 31.1669 11.4739 31.1818 11.3994L26.9845 9.65596L22.7872 7.91253C22.7426 7.97213 22.6979 8.03174 22.6384 8.07644C22.4449 8.27015 22.2216 8.40427 21.9537 8.46387V12.2339Z" fill="white"/>
<path fill-rule="evenodd" clip-rule="evenodd" d="M25.5856 13.1428L27.6694 14.0071C27.9968 13.7389 28.3987 13.5899 28.8452 13.5899C29.3661 13.5899 29.8275 13.7985 30.1699 14.1412C30.5122 14.4839 30.7206 14.9459 30.7206 15.4674C30.7206 15.989 30.5122 16.4509 30.1699 16.7936C29.8275 17.1363 29.3661 17.345 28.8452 17.345C28.3242 17.345 27.8629 17.1363 27.5205 16.7936C27.2228 16.4956 27.0294 16.1082 26.9847 15.6611L24.901 14.7969L22.8023 13.9326C22.4749 14.2008 22.073 14.3498 21.6265 14.3498C21.18 14.3498 20.7632 14.1859 20.4507 13.9326L18.352 14.7969L16.2683 15.6611C16.2236 16.0933 16.0302 16.4956 15.7325 16.7936C15.4348 17.0916 15.0478 17.2854 14.6013 17.3301L13.738 19.4162L12.8748 21.5024C13.1427 21.8302 13.2915 22.2325 13.2915 22.6796C13.2915 23.1266 13.1278 23.5439 12.8748 23.8568L13.738 25.9429L14.6013 28.0291C15.0329 28.0738 15.4348 28.2675 15.7325 28.5655C16.0302 28.8636 16.2236 29.251 16.2683 29.698L18.352 30.5623L20.4507 31.4266C20.7781 31.1584 21.18 31.0093 21.6265 31.0093C22.073 31.0093 22.4898 31.1733 22.8023 31.4266L24.901 30.5623L26.9847 29.698C27.0294 29.2659 27.2228 28.8636 27.5205 28.5655C27.8629 28.2228 28.3242 28.0142 28.8452 28.0142C29.3661 28.0142 29.8275 28.2228 30.1699 28.5655C30.5122 28.9083 30.7206 29.3702 30.7206 29.8918C30.7206 30.4133 30.5122 30.8752 30.1699 31.218C29.8275 31.5607 29.3661 31.7693 28.8452 31.7693C28.3987 31.7693 27.9819 31.6054 27.6694 31.3521L25.5707 32.2163L23.487 33.0806C23.4423 33.5127 23.2488 33.9151 22.9512 34.2131C22.6088 34.5558 22.1474 34.7644 21.6265 34.7644C21.1056 34.7644 20.6442 34.5558 20.3018 34.2131C20.0042 33.9151 19.8107 33.5276 19.766 33.0806L17.6823 32.2163L15.5985 31.3521C15.2711 31.6203 14.8692 31.7693 14.4227 31.7693C13.9018 31.7693 13.4404 31.5607 13.098 31.218C12.7557 30.8752 12.5473 30.4133 12.5473 29.8918C12.5473 29.4447 12.711 29.0275 12.9641 28.7146L12.1008 26.6284L11.2375 24.5422C10.8059 24.4975 10.404 24.3038 10.1064 24.0058C9.76404 23.6631 9.55566 23.2011 9.55566 22.6796C9.55566 22.158 9.76404 21.6961 10.1064 21.3534C10.404 21.0554 10.791 20.8616 11.2375 20.8169L12.1008 18.7308L12.9641 16.6446C12.6962 16.3168 12.5473 15.9144 12.5473 15.4674C12.5473 14.9459 12.7557 14.4839 13.098 14.1412C13.4552 13.7985 13.9315 13.5899 14.4376 13.5899C14.8841 13.5899 15.3008 13.7538 15.6134 14.0071L17.6972 13.1428L19.7809 12.2786C19.8255 11.8464 20.019 11.4441 20.3167 11.1461C20.659 10.8033 21.1204 10.5947 21.6414 10.5947C22.1623 10.5947 22.6237 10.8033 22.9661 11.1461C23.2637 11.4441 23.4572 11.8315 23.5019 12.2786L25.5856 13.1428Z" fill="white"/>
<path d="M77.3369 27.5673C75.7592 29.1319 73.7052 29.8621 71.4875 29.8621C65.7721 29.8621 63.346 25.9281 63.3311 21.9197C63.3162 17.8964 65.9209 13.7986 71.4875 13.7986C73.5712 13.7986 75.5508 14.5883 77.1434 16.153L75.2085 18.0305C74.1964 17.0321 72.827 16.5702 71.4875 16.5702C67.7665 16.5702 66.1591 19.3418 66.1888 21.9197C66.2037 24.4678 67.6772 27.1351 71.4875 27.1351C72.827 27.1351 74.3452 26.5838 75.3573 25.5705L77.3369 27.5673Z" fill="white"/>
<path d="M96.3734 29.5045H92.9203L88.4403 24.3487H85.6421V29.5045H82.7397V14.0669C85.1807 14.0669 87.6217 14.0818 90.0626 14.0818C93.6943 14.1116 95.5994 16.5256 95.5994 19.1929C95.5994 21.3089 94.632 23.4397 91.6999 24.0358L96.3585 29.2959V29.5045H96.3734ZM85.6421 16.7938V21.7261H90.0626C91.9082 21.7261 92.6971 20.4893 92.6971 19.2674C92.6971 18.0455 91.8785 16.8087 90.0626 16.8087H85.6421V16.7938Z" fill="white"/>
<path d="M117.136 21.89C117.092 25.8686 114.651 29.8621 109.248 29.8621C103.845 29.8621 101.33 25.958 101.33 21.9198C101.33 17.8815 103.919 13.7986 109.248 13.7986C114.546 13.7837 117.181 17.8517 117.136 21.89ZM104.187 21.9496C104.247 24.4828 105.616 27.1948 109.248 27.1948C112.879 27.1948 114.234 24.4679 114.279 21.9347C114.323 19.3419 112.865 16.4361 109.248 16.4361C105.616 16.4212 104.113 19.3568 104.187 21.9496Z" fill="white"/>
<path d="M140.34 29.5045H137.884L135.964 24.6616L134.342 19.8038L132.735 24.7063L130.859 29.5045H128.403L122.748 14.0967H126.007L129.639 25.213L133.375 14.0967H135.265L139.12 25.213L142.632 14.0967H145.892L140.34 29.5045Z" fill="white"/>
<path d="M165.643 21.6665C165.703 25.5706 163.336 29.5045 157.948 29.5045C156.058 29.5045 153.796 29.5045 151.905 29.5045V14.0967C153.796 14.0967 156.058 14.0967 157.948 14.0967C163.232 14.0967 165.584 17.8518 165.643 21.6665ZM154.778 26.7031H157.948C161.446 26.7031 162.83 24.155 162.771 21.6367C162.711 19.2376 161.297 16.8385 157.948 16.8385H154.778V26.7031Z" fill="white"/>
<path d="M185.572 27.5673C183.995 29.1319 181.941 29.8621 179.723 29.8621C174.008 29.8621 171.582 25.9281 171.567 21.9197C171.537 17.8964 174.156 13.7986 179.723 13.7986C181.807 13.7986 183.786 14.5883 185.379 16.153L183.444 18.0305C182.432 17.0321 181.063 16.5702 179.723 16.5702C176.002 16.5702 174.395 19.3418 174.424 21.9197C174.439 24.4678 175.913 27.1351 179.723 27.1351C181.063 27.1351 182.581 26.5838 183.593 25.5705L185.572 27.5673Z" fill="white"/>
<path d="M202.436 29.5045H190.916C190.916 24.3785 190.916 19.2227 190.916 14.0967H202.436V16.913H193.789V20.4595H202.124V23.1715H193.789V26.6435H202.436V29.5045Z" fill="white"/>
<path d="M219.24 14.0669H222.142V29.5045H220.341V29.5194L212.245 19.1035V29.4896H209.342V14.0967H211.694L219.24 23.6484V14.0669Z" fill="white"/>
<path d="M233.216 16.7342H228.334V14.0967C232.769 14.0967 236.535 14.0967 241 14.0967V16.7342H236.118V29.5045H233.216V16.7342Z" fill="white"/>
</svg>
